<?xml version="1.0" encoding="UTF-8"?>
<svg id="Capa_2" data-name="Capa 2" xmlns="http://www.w3.org/2000/svg" viewBox="0 0 477.06 47.31">
  <defs>
    <style>
      .cls-1 {
        fill: #1c1009;
      }
    </style>
  </defs>
  <g id="Capa_1-2" data-name="Capa 1">
    <path class="cls-1" d="M24.32,47.31c-3.5,0-6.73-.59-9.7-1.76-2.97-1.17-5.54-2.82-7.71-4.95s-3.87-4.63-5.08-7.51c-1.22-2.88-1.83-6.02-1.83-9.44s.61-6.56,1.83-9.44c1.22-2.88,2.92-5.38,5.12-7.51,2.19-2.13,4.77-3.78,7.74-4.95,2.97-1.17,6.2-1.76,9.7-1.76s6.53.56,9.5,1.69c2.97,1.13,5.47,2.82,7.51,5.08l-3.12,3.12c-1.91-1.95-4.01-3.36-6.31-4.22-2.3-.86-4.78-1.3-7.44-1.3-2.79,0-5.38.48-7.77,1.43-2.39.95-4.48,2.3-6.25,4.05-1.77,1.75-3.16,3.79-4.15,6.11-1,2.33-1.5,4.88-1.5,7.68s.5,5.35,1.5,7.68c1,2.33,2.38,4.36,4.15,6.11,1.77,1.75,3.85,3.1,6.25,4.05,2.39.95,4.98,1.43,7.77,1.43s5.14-.44,7.44-1.33c2.3-.89,4.41-2.3,6.31-4.25l3.12,3.12c-2.04,2.26-4.54,3.97-7.51,5.12-2.97,1.15-6.16,1.73-9.57,1.73Z"/>
    <path class="cls-1" d="M115.36,47.31c-5.94,0-10.61-1.71-14.02-5.12-3.41-3.41-5.12-8.46-5.12-15.15V.4h4.92v26.45c0,5.49,1.24,9.55,3.72,12.16,2.48,2.61,5.98,3.92,10.5,3.92s8.08-1.31,10.57-3.92c2.48-2.61,3.72-6.67,3.72-12.16V.4h4.79v26.65c0,6.69-1.7,11.74-5.08,15.15-3.39,3.41-8.05,5.12-13.99,5.12Z"/>
    <path class="cls-1" d="M143.34,46.92v-3.39L175.63,2.79l.53,1.86h-32.36V.4h36.88v3.39l-32.23,40.74-.6-1.86h33.63v4.25h-38.14Z"/>
    <path class="cls-1" d="M252.38,46.92V.4h4.92v42.26h26.05v4.25h-30.97Z"/>
    <path class="cls-1" d="M286.54,46.92L307.81.4h4.85l21.26,46.52h-5.18l-19.54-43.66h1.99l-19.54,43.66h-5.12ZM294.92,34.49l1.46-3.99h27.05l1.46,3.99h-29.97Z"/>
    <path class="cls-1" d="M339.64,46.92V.4h4.05l32.1,40.4h-2.13V.4h4.85v46.52h-4.05l-32.03-40.4h2.13v40.4h-4.92Z"/>
    <path class="cls-1" d="M409.54,47.31c-3.5,0-6.73-.59-9.7-1.76-2.97-1.17-5.54-2.82-7.71-4.95s-3.87-4.63-5.08-7.51c-1.22-2.88-1.83-6.02-1.83-9.44s.61-6.56,1.83-9.44c1.22-2.88,2.92-5.38,5.12-7.51,2.19-2.13,4.77-3.78,7.74-4.95,2.97-1.17,6.2-1.76,9.7-1.76s6.53.56,9.5,1.69c2.97,1.13,5.47,2.82,7.51,5.08l-3.12,3.12c-1.91-1.95-4.01-3.36-6.31-4.22-2.3-.86-4.78-1.3-7.44-1.3-2.79,0-5.38.48-7.77,1.43-2.39.95-4.48,2.3-6.25,4.05-1.77,1.75-3.16,3.79-4.15,6.11-1,2.33-1.5,4.88-1.5,7.68s.5,5.35,1.5,7.68c1,2.33,2.38,4.36,4.15,6.11,1.77,1.75,3.85,3.1,6.25,4.05,2.39.95,4.98,1.43,7.77,1.43s5.14-.44,7.44-1.33c2.3-.89,4.41-2.3,6.31-4.25l3.12,3.12c-2.04,2.26-4.54,3.97-7.51,5.12-2.97,1.15-6.16,1.73-9.57,1.73Z"/>
    <path class="cls-1" d="M429.68,46.92L450.94.4h4.85l21.26,46.52h-5.18l-19.54-43.66h1.99l-19.54,43.66h-5.12Z"/>
    <path class="cls-1" d="M76.34,30.95c.62-.2,1.23-.43,1.8-.68,2.83-1.26,5.02-3.08,6.55-5.45,1.53-2.37,2.29-5.19,2.29-8.47,0-5.01-1.7-8.92-5.08-11.73-3.39-2.81-8.03-4.22-13.92-4.22h-17.41v4.25h17.28c4.65,0,8.18,1.02,10.6,3.06,2.42,2.04,3.62,4.92,3.62,8.64s-1.21,6.54-3.62,8.57c-2.42,2.04-5.95,3.06-10.6,3.06h-17.28v18.94h4.92v-14.75h12.49c1.31,0,2.56-.08,3.75-.22l10.61,14.97h5.38l-11.37-15.96Z"/>
    <path class="cls-1" d="M245.67,27.81c-1.2-1.79-2.87-3.15-5.02-4.05-.87-.37-1.82-.64-2.83-.86.21-.08.43-.15.63-.24,2.02-.89,3.61-2.19,4.78-3.92,1.17-1.73,1.76-3.85,1.76-6.38,0-3.81-1.43-6.76-4.29-8.84-2.86-2.08-6.88-3.12-12.06-3.12h-20.07v4.05h19.74c3.72,0,6.61.7,8.67,2.09,2.06,1.4,3.09,3.51,3.09,6.35s-1.03,4.9-3.09,6.31c-2.06,1.42-4.95,2.13-8.67,2.13h-19.74v4.05h21.33c4.08,0,7.2.7,9.37,2.09,2.17,1.4,3.26,3.6,3.26,6.61s-1.09,5.28-3.26,6.68c-2.17,1.4-5.29,2.09-9.37,2.09h-21.33v4.05h21.4c5.85,0,10.22-1.08,13.12-3.26,2.9-2.17,4.35-5.23,4.35-9.17,0-2.66-.6-4.88-1.79-6.68Z"/>
  </g>
</svg>
